<svg xmlns="http://www.w3.org/2000/svg" width="760" height="898" viewBox="0 0 760 898"><rect width="100%" height="100%" fill="white"/><style>text{font-family:Arial,Helvetica,sans-serif;fill:#454545}.title{font-size:38px;font-weight:700;fill:#c00}.head{font-size:16px;font-weight:700;fill:white}.cell{font-size:16px}.small{font-size:15px}</style><text x="10" y="48" class="title">Summer and Transition Housing</text><text x="10" y="94" class="title">Costs</text><rect x="8" y="130" width="744" height="72" fill="#d50000"/><text x="18" y="171" class="head">Cost/Housing Type</text><text x="325" y="171" class="head">Summer 2025</text><text x="585" y="160" text-anchor="middle" class="head">Summer 2026</text><text x="585" y="183" text-anchor="middle" class="head">Projected</text><rect x="8" y="202" width="744" height="56" fill="#ffffff"/><text x="18" y="236" class="cell">Transition Housing</text><text x="325" y="236" class="cell">$15 per night</text><text x="565" y="236" class="cell">$15 per night</text><rect x="8" y="258" width="744" height="56" fill="#ededed"/><rect x="18" y="271" width="48" height="22" fill="#ff9f00"/><text x="18" y="292" class="cell">Winter</text><text x="69" y="292" class="cell"> Break Housing</text><text x="325" y="292" class="cell">$15 per night</text><text x="565" y="292" class="cell">$15 per night</text><rect x="8" y="314" width="744" height="56" fill="#ffffff"/><text x="18" y="348" class="cell">Early Arrivals</text><text x="325" y="348" class="cell">$15 – $50 per night</text><text x="565" y="348" class="cell">$15 – $50 per night</text><rect x="8" y="370" width="744" height="56" fill="#efefef"/><text x="18" y="404" class="cell">Summer Start – double/single</text><text x="325" y="404" class="cell">$850/$1,150 per session</text><text x="565" y="404" class="cell">$850/$1,150 per session</text><rect x="8" y="426" width="744" height="56" fill="#ffffff"/><text x="18" y="460" class="cell">2-, 3- or 4-Bedroom Apts</text><text x="325" y="460" class="cell">$1,000 per session</text><text x="565" y="460" class="cell">$1,000 per session</text><rect x="8" y="482" width="744" height="56" fill="#efefef"/><text x="18" y="516" class="cell">1 bedroom/studio (WV &amp; WR)</text><text x="325" y="516" class="cell">$1,200 per session</text><text x="565" y="516" class="cell">$1,200 per session</text><rect x="8" y="538" width="744" height="56" fill="#ffffff"/><text x="18" y="572" class="cell">E.S. King/Western Manor – studio</text><text x="325" y="572" class="cell">$1,150 per session</text><text x="565" y="572" class="cell">$1,150 per session</text><rect x="8" y="594" width="744" height="56" fill="#efefef"/><text x="18" y="628" class="cell">E.S. King/Western Manor – 1 bed</text><text x="325" y="628" class="cell">$1,400 per session</text><text x="565" y="628" class="cell">$1,400 per session</text><rect x="8" y="650" width="744" height="56" fill="#ffffff"/><text x="18" y="684" class="cell">E.S. King/Western Manor – 2 bed</text><text x="325" y="684" class="cell">$1,600 per session</text><text x="565" y="684" class="cell">$1,600 per session</text><rect x="8" y="706" width="744" height="56" fill="#efefef"/><text x="18" y="740" class="cell">Coastal Quarters – double</text><text x="325" y="740" class="cell">$800 per session</text><text x="565" y="740" class="cell">$800 per session</text><rect x="8" y="762" width="744" height="56" fill="#ffffff"/><text x="18" y="796" class="cell">Coastal Quarters – single</text><text x="325" y="796" class="cell">$875 per session</text><text x="565" y="796" class="cell">$875 per session</text><rect x="8" y="818" width="744" height="56" fill="#efefef"/><text x="18" y="852" class="cell">ResNet (required fee)</text><text x="325" y="852" class="cell">$70 per session</text><text x="565" y="852" class="cell">$70 per session</text></svg>